<?xml version="1.0" encoding="UTF-8"?>
<svg width="512" height="512" viewBox="0 0 512 512" fill="none" xmlns="http://www.w3.org/2000/svg">
  <path d="M256 64C185.307 64 128 121.307 128 192C128 262.693 185.307 320 256 320C326.693 320 384 262.693 384 192C384 121.307 326.693 64 256 64ZM256 288C203.065 288 160 244.935 160 192C160 139.065 203.065 96 256 96C308.935 96 352 139.065 352 192C352 244.935 308.935 288 256 288Z" fill="currentColor"/>
  <path d="M256 128C220.654 128 192 156.654 192 192C192 227.346 220.654 256 256 256C291.346 256 320 227.346 320 192C320 156.654 291.346 128 256 128ZM256 224C238.327 224 224 209.673 224 192C224 174.327 238.327 160 256 160C273.673 160 288 174.327 288 192C288 209.673 273.673 224 256 224Z" fill="currentColor"/>
  <path d="M256 448C291.346 448 320 419.346 320 384C320 348.654 291.346 320 256 320C220.654 320 192 348.654 192 384C192 419.346 220.654 448 256 448ZM256 352C273.673 352 288 366.327 288 384C288 401.673 273.673 416 256 416C238.327 416 224 401.673 224 384C224 366.327 238.327 352 256 352Z" fill="currentColor"/>
  <path d="M384 320C348.654 320 320 348.654 320 384C320 419.346 348.654 448 384 448C419.346 448 448 419.346 448 384C448 348.654 419.346 320 384 320ZM384 416C366.327 416 352 401.673 352 384C352 366.327 366.327 352 384 352C401.673 352 416 366.327 416 384C416 401.673 401.673 416 384 416Z" fill="currentColor"/>
  <path d="M128 320C92.654 320 64 348.654 64 384C64 419.346 92.654 448 128 448C163.346 448 192 419.346 192 384C192 348.654 163.346 320 128 320ZM128 416C110.327 416 96 401.673 96 384C96 366.327 110.327 352 128 352C145.673 352 160 366.327 160 384C160 401.673 145.673 416 128 416Z" fill="currentColor"/>
</svg> 